/* XPM */
static char *_518793136351[] = {
/* columns rows colors chars-per-pixel */
"20 20 9 1 ",
"  c #EED31E",
". c #F8DC16",
"X c #F9DD16",
"o c #FCE014",
"O c #0B0AC5",
"+ c MediumBlue",
"@ c #0101CD",
"# c #0000CF",
"$ c None",
/* pixels */
"$$$$$$$$$$$$$$$$$$$$",
"$$$$$$$$$$$$$$$$$$$$",
"$$$$$$$$$$$$$$$$$$$$",
"$$$$$$$$$$$$$$$$$$$$",
"$+++++++++++++++@@@$",
"$+++++++++++++++@@@$",
"$+++++++++++++++@@@$",
"$+++++@@@@@@@@@@@@@$",
"$######@+@@@@######$",
"$OOOOOOOOOOOOOOOOOO$",
"$                  $",
"$ooooooXooooooooooo$",
"$XX.........XX..X..$",
"$XXXXXXXXXXXXXXXXXX$",
"$XXXXXXXXXXXXXXXXXX$",
"$XXXXXXXXXXXXXXXXXX$",
"$$$$$$$$$$$$$$$$$$$$",
"$$$$$$$$$$$$$$$$$$$$",
"$$$$$$$$$$$$$$$$$$$$",
"$$$$$$$$$$$$$$$$$$$$"
};
