/* XPM */
static char *_518793130179[] = {
/* columns rows colors chars-per-pixel */
"20 20 72 1 ",
"  c #FE1F1F",
". c #FF1F1F",
"X c #FF201E",
"o c #EE1721",
"O c #EE222C",
"+ c #FF2929",
"@ c #FF2B29",
"# c #FE292A",
"$ c #FF3B2F",
"% c #FF3B30",
"& c #FF3C30",
"* c #EF3943",
"= c #FF4140",
"- c #FE4141",
"; c #FF4141",
": c #FF4340",
"> c #EE535B",
", c #FF5C5B",
"< c #FE5C5C",
"1 c #FF5C5C",
"2 c #FF5E5C",
"3 c #F65B61",
"4 c #EE6B75",
"5 c #FE7676",
"6 c #FF7676",
"7 c #FF7976",
"8 c #FA7679",
"9 c #241C94",
"0 c #261C9A",
"q c #271E9B",
"w c #27219E",
"e c #27229F",
"r c #29219D",
"t c #29269F",
"y c #2727A4",
"u c #2C2CA6",
"i c #2D2DA7",
"p c #2D2FA9",
"a c #3430A5",
"s c #3430A6",
"d c #3533A9",
"f c #3633A8",
"g c #3434AA",
"h c #3737AB",
"j c #3838AB",
"k c #4848B2",
"l c #4949B2",
"z c #4949B3",
"x c #4A49B2",
"c c #4A4AB3",
"v c #4F4FB4",
"b c #4F4FB5",
"n c #4C4FB6",
"m c #4D4FB6",
"M c #5050B5",
"N c #5151B6",
"B c #5355B9",
"V c #5556B9",
"C c #5656B8",
"Z c #5858B9",
"A c #5F77D4",
"S c #6C79CF",
"D c #6075D2",
"F c #6176D2",
"G c #6177D2",
"H c #6277D2",
"J c #657AD4",
"K c #EE7E88",
"L c #FE8A8A",
"P c #FF8A8A",
"I c #FF8D8A",
"U c None",
/* pixels */
"UUUUUUUUUUUUUUUUUUUU",
"UUUUUUUUUUUUUUUUUUUU",
"UUUUUUUUUUUUUUUUUUUU",
"UUUUUUUUUUUUUUUUUUUU",
"Uyiiiuuup9o++......U",
"UhZvNNNMCwKILLLLPPPU",
"Ugmkxxxkm0o@+++++++U",
"Uhmxxxcxmw456666666U",
"UjCMvNmNBr*;;;;;;;;U",
"Utdaaaaad9>2,2<2<<<U",
"UJFFFFFFAS3,<<<<<<2U",
"U$&&&&%%%%;;;;;;;;;U",
"U888888888666666666U",
"U++++++++++++++++++U",
"UPPPPPPPPPPPPPPPPPPU",
"U..................U",
"UUUUUUUUUUUUUUUUUUUU",
"UUUUUUUUUUUUUUUUUUUU",
"UUUUUUUUUUUUUUUUUUUU",
"UUUUUUUUUUUUUUUUUUUU"
};
